<svg fill="none" height="652" viewBox="0 0 1695 652" width="1695" xmlns="http://www.w3.org/2000/svg"><path d="m1447.84 0s114.16 24.9011 138.63 131.62c0 0 138.62 311.856-68.5 373.516 0 0-251.15 69.96-251.15-232.41 0 0 37.51-257.3111 181.02-272.726z" fill="#46a477"/><path d="m633.663 69.3496s74.833 16.2376 90.869 85.8274c0 0 90.868 203.356-44.9 243.564 0 0-164.632 45.62-164.632-151.551 0 0 24.588-167.7885 118.663-177.8404z" fill="#46a477"/><path d="m1074.37 37.7637s57.46 13.169 69.77 69.6073c0 0 69.77 164.926-34.48 197.535 0 0-126.408 36.999-126.408-122.91 0 0 18.878-136.0801 91.118-144.2323z" fill="#bdddc6"/><g fill="#fee650"><path d="m1219.92 165.597s107.63-2.77 111.43 147.73c0 0 58.25 218.826-127.9 238.216 0 0-208.937 9.233-127.89-221.596 1.26 0 40.52-167.12 144.36-164.35z"/><path d="m871.382 218.845s85.499-2.19 88.517 116.837c0 0 46.271 173.063-101.593 188.398 0 0-165.968 7.302-101.592-175.254 1.006 0 32.187-132.171 114.668-129.981z"/><path d="m1591.04 246.836s76.23 32.287 92.22 147.984c-1.23 0 60.25 201.796-92.22 250.228 0 0-148.79 45.74-174.61-111.213 0 0-28.28-199.105 108.21-268.165-1.23 0 40.57-35.875 66.4-18.834z"/></g><path d="m1339.77 333.166s58.46 24.761 70.72 113.488c-.94 0 46.21 154.757-70.72 191.899 0 0-114.11 35.078-133.91-85.288 0 0-21.69-152.694 82.99-205.655-.95 0 31.11-27.512 50.92-14.444z" fill="#d7da4b"/><path d="m521.768 137.469s58.466 24.761 70.725 113.488c-.943 0 46.207 154.757-70.725 191.899 0 0-114.103 35.078-133.907-85.289 0 0-21.689-152.693 82.985-205.654-.943 0 31.119-27.513 50.922-14.444z" fill="#d7da4b"/><path d="m753.654 295.576s57.459 13.169 69.772 69.608c0 0 69.772 164.926-34.476 197.535 0 0-126.41 36.998-126.41-122.911 0 0 18.88-136.08 91.114-144.232z" fill="#bdddc6"/><path d="m356.501 185.267s65.69-1.715 68.009 91.465c0 0 35.55 135.482-78.056 147.487 0 0-127.517 5.717-78.056-137.197.773 0 24.731-103.47 88.103-101.755z" fill="#fee650"/><path d="m300.193 90.5469s57.459 13.1691 69.772 69.6071c0 0 69.772 164.926-34.476 197.535 0 0-126.41 36.999-126.41-122.91 0 0 18.88-136.0799 91.114-144.2321z" fill="#bdddc6"/><path d="m82.3061 171.98s35.4439 15.004 42.8759 68.768c-.572 0 28.011 93.776-42.8759 116.282 0 0-69.1724 21.256-81.17748-51.681 0 0-13.14852-92.525 50.30718-124.617-.5717 0 18.8652-16.671 30.8703-8.752z" fill="#46a477"/><path d="m1019.65 212.354s64.11 14.672 77.85 77.555c0 0 77.84 183.759-38.47 220.091 0 0-141.03 41.223-141.03-136.945 0 0 21.063-151.618 101.65-160.701z" fill="#d7da4b"/></svg>